<svg width="89" height="33" viewBox="0 0 89 33" fill="none" xmlns="http://www.w3.org/2000/svg">
<path d="M8.74571 20.9753L6.76769 32.25H0.328125L5.88856 0.25L17.0974 0.271978C20.5552 0.271978 23.2732 1.23168 25.2512 3.1511C27.2292 5.07051 28.0937 7.57601 27.8446 10.6676C27.6102 13.8031 26.2988 16.3086 23.9105 18.1841C21.5369 20.0595 18.5039 20.9973 14.8116 20.9973L8.74571 20.9753ZM9.64681 15.6346L15.0094 15.6786C16.7384 15.6786 18.1743 15.2317 19.3171 14.3379C20.46 13.4441 21.1413 12.2353 21.3611 10.7115C21.5809 9.18773 21.3318 7.97161 20.6138 7.06319C19.9105 6.15476 18.8629 5.67125 17.471 5.61264L11.405 5.59066L9.64681 15.6346Z" fill="#16365C"/>
<path d="M35.5809 32.25H29.1413L34.6798 0.25H41.1193L35.5809 32.25Z" fill="#16365C"/>
<path d="M55.2512 21.1071H43.2072L44.0864 15.9863H56.1523L55.2512 21.1071Z" fill="#16365C"/>
<path d="M73.2952 11.239L80.8336 0.25H88.5699L76.8116 16.4258L83.449 32.25H76.3281L72.1303 21.0852L64.416 32.25H56.5919L68.6138 15.8104L62.1743 0.25H69.2072L73.2952 11.239Z" fill="#16365C"/>
</svg>
